Coordinates
version=1
nRows=13
nColumns=40
inDegrees=yes

Units are S.I. units (second, meters, Newtons, ...)
Angles are in degrees.

endheader
time	pelvis_tilt	pelvis_list	pelvis_rotation	pelvis_tx	pelvis_ty	pelvis_tz	hip_flexion_r	hip_adduction_r	hip_rotation_r	knee_angle_r	knee_angle_r_beta	ankle_angle_r	subtalar_angle_r	mtp_angle_r	hip_flexion_l	hip_adduction_l	hip_rotation_l	knee_angle_l	knee_angle_l_beta	ankle_angle_l	subtalar_angle_l	mtp_angle_l	lumbar_extension	lumbar_bending	lumbar_rotation	arm_flex_r	arm_add_r	arm_rot_r	elbow_flex_r	pro_sup_r	wrist_flex_r	wrist_dev_r	arm_flex_l	arm_add_l	arm_rot_l	elbow_flex_l	pro_sup_l	wrist_flex_l	wrist_dev_l
     17.48214286	     -4.94484002	     -6.58654207	      3.45764933	      0.97062181	      0.92018216	      0.49496848	     -0.32086707	      5.85467694	    -16.26704779	      9.62750471	      9.62750471	     16.56097088	      6.57866027	     -2.59922914	     31.49347325	     -8.35817870	     -3.16986822	     20.20652462	     20.20652462	      1.86947013	    -10.62319849	      6.58306960	     -9.22901795	      6.78632218	      3.81877266	     42.22364679	    -14.30508244	      5.17572755	    108.55439929	     43.25578263	      0.00000000	      0.00000000	    -10.33500876	     -7.70023757	     -6.61894692	     27.31527892	     45.48024925	      0.00000000	      0.00000000
     17.49428571	     -5.01212360	     -6.59909646	      3.31875551	      0.97185386	      0.91911519	      0.49328424	     -0.62939760	      5.66080610	    -16.28996820	     10.11423429	     10.11423429	     17.22380388	      6.84316069	     -2.05667049	     31.18958530	     -8.15235669	     -2.59771224	     20.96087499	     20.96087499	      1.32321812	    -12.09788824	      6.46780189	     -8.98027695	      6.77602611	      3.81096592	     42.22154468	    -14.09626517	      5.31425820	    109.06306876	     43.28881235	      0.00000000	      0.00000000	    -10.89276688	     -7.72914944	     -6.29660423	     28.28958178	     45.42837243	      0.00000000	      0.00000000
     17.50642857	     -5.00729395	     -6.57727463	      3.15890970	      0.97313562	      0.91834121	      0.49154794	     -1.01922970	      5.44119659	    -16.13728871	     10.57428519	     10.57428519	     17.64839929	      6.89277243	     -1.94809437	     30.87268990	     -8.04178843	     -2.44674824	     21.81617098	     21.81617098	      1.33635785	    -12.67512829	      6.22806068	     -8.83162391	      6.72070401	      3.93027621	     42.09758528	    -14.03583987	      5.34468939	    109.08255350	     43.30815728	      0.00000000	      0.00000000	    -11.06538243	     -7.70172377	     -6.15555334	     28.58602375	     45.40838035	      0.00000000	      0.00000000
     17.51857143	     -5.05097435	     -6.47511630	      3.05629931	      0.97435064	      0.91794021	      0.48961166	     -1.44412455	      5.15546941	    -15.97384044	     10.82409020	     10.82409020	     17.85257021	      6.88298584	     -1.97717347	     30.46233898	     -7.82981321	     -2.38963484	     22.31421919	     22.31421919	      1.57154399	    -12.97110734	      6.05656351	     -8.60699227	      6.61321518	      3.92276670	     41.78115389	    -13.98531842	      5.40956820	    109.04664671	     43.30949506	      0.00000000	      0.00000000	    -11.08704154	     -7.63035281	     -6.12519329	     28.65146737	     45.40385416	      0.00000000	      0.00000000
     17.53071429	     -5.13860857	     -6.32226236	      2.94933541	      0.97513943	      0.91754119	      0.48752524	     -1.29684115	      4.63417536	    -15.91729306	     12.07765168	     12.07765168	     18.34208385	      6.65538284	     -1.90147054	     30.35841439	     -7.53359358	     -2.11842577	     23.17052256	     23.17052256	      1.80037215	    -13.75657593	      5.76515695	     -8.47059464	      6.36651078	      3.97296440	     41.09467178	    -14.07688496	      5.40305673	    108.90429207	     43.33663925	      0.00000000	      0.00000000	    -11.10781590	     -7.65720796	     -5.98702469	     29.17430688	     45.38755243	      0.00000000	      0.00000000
     17.54285714	     -5.19768768	     -6.13120995	      2.90959512	      0.97593132	      0.91765419	      0.48520859	     -1.28791839	      4.10205940	    -15.86965221	     13.08682550	     13.08682550	     18.62815603	      6.46572249	     -1.78875300	     30.06326332	     -7.19362035	     -1.97461093	     23.67502747	     23.67502747	      2.26405232	    -14.17363895	      5.51078527	     -8.34610731	      6.14819294	      3.94932686	     40.29998013	    -14.19320315	      5.36497195	    108.64898113	     43.36800480	      0.00000000	      0.00000000	    -11.00912595	     -7.67633040	     -5.83306278	     29.59593670	     45.37233769	      0.00000000	      0.00000000
     17.55500000	     -5.11438429	     -6.00847767	      2.95961906	      0.97676763	      0.91832113	      0.48272271	     -1.56200576	      3.69613541	    -15.83837986	     13.80120951	     13.80120951	     18.60485193	      6.27818605	     -1.81867936	     29.61049428	     -6.91424307	     -1.78985028	     24.11281618	     24.11281618	      2.89035064	    -14.41325390	      5.21464327	     -8.42904339	      6.02845746	      3.74301460	     39.37352695	    -14.23335078	      5.45024676	    108.35135704	     43.37722009	      0.00000000	      0.00000000	    -10.77383878	     -7.62797988	     -5.78321134	     29.76087096	     45.37018267	      0.00000000	      0.00000000
     17.56714286	     -5.32994452	     -5.72402132	      2.90214156	      0.97705755	      0.91873976	      0.48014762	     -0.89243550	      2.88640386	    -15.78030651	     15.68362787	     15.68362787	     18.78763663	      5.85507874	     -2.10269966	     29.41506314	     -6.48827846	     -1.82002624	     24.40677950	     24.40677950	      3.50110004	    -14.59512037	      5.04330470	     -8.20880217	      5.71313457	      3.84897759	     38.24423728	    -14.60599694	      5.25343533	    107.58785336	     43.42489019	      0.00000000	      0.00000000	    -10.40431258	     -7.66437990	     -5.67013366	     30.15448275	     45.36560501	      0.00000000	      0.00000000
     17.57928571	     -5.36617549	     -5.52759125	      2.91492705	      0.97750018	      0.91966934	      0.47746011	     -0.55096574	      2.22385970	    -15.73921659	     17.27652832	     17.27652832	     18.71803559	      5.49048179	     -2.42033252	     28.97027671	     -6.14431370	     -1.83717639	     24.58142423	     24.58142423	      4.18429953	    -14.69879937	      4.91787193	     -8.17720305	      5.51920658	      3.79161803	     36.97006463	    -14.83934752	      5.10262577	    106.81671350	     43.46822117	      0.00000000	      0.00000000	     -9.99940780	     -7.69125511	     -5.56398850	     30.45868522	     45.36262462	      0.00000000	      0.00000000
     17.59142857	     -5.40328493	     -5.32654382	      2.92190142	      0.97784718	      0.92073997	      0.47469263	     -0.04574636	      1.50551745	    -15.65531092	     19.14415005	     19.14415005	     18.51464246	      5.04010159	     -2.94305018	     28.45648111	     -5.80121240	     -1.92957476	     24.62534672	     24.62534672	      4.85068536	    -14.68356576	      4.80415975	     -8.17469890	      5.33798140	      3.74786278	     35.57595435	    -15.11283181	      4.93387507	    105.83674093	     43.51587916	      0.00000000	      0.00000000	     -9.51940640	     -7.70524058	     -5.47979497	     30.78261726	     45.36361581	      0.00000000	      0.00000000
     17.60357143	     -5.40084381	     -5.15796410	      2.92290998	      0.97810951	      0.92194453	      0.47188150	      0.55888343	      0.78780084	    -15.52327831	     21.23483938	     21.23483938	     18.13355936	      4.51190375	     -3.61863704	     27.85271541	     -5.49405224	     -2.05940156	     24.57559227	     24.57559227	      5.47061626	    -14.59611570	      4.68397727	     -8.24606570	      5.21808874	      3.67770032	     34.07009358	    -15.37641812	      4.77408046	    104.70273429	     43.56437016	      0.00000000	      0.00000000	     -8.99576913	     -7.72015441	     -5.42260780	     31.13854926	     45.36824275	      0.00000000	      0.00000000
     17.61571429	     -5.47740374	     -4.96832091	      2.88303180	      0.97828949	      0.92296453	      0.46915819	      1.53195339	     -0.02348590	    -15.28794375	     23.81932901	     23.81932901	     17.56624397	      3.73402824	     -4.74300586	     27.26535916	     -5.18231165	     -2.27403963	     24.41200005	     24.41200005	      6.05908926	    -14.43602996	      4.59485855	     -8.15223158	      5.05166334	      3.73388827	     32.54306657	    -15.69187142	      4.42109066	    103.17734746	     43.63486921	      0.00000000	      0.00000000	     -8.45529711	     -7.73038210	     -5.35942470	     31.61952960	     45.37378149	      0.00000000	      0.00000000
     17.62785714	     -5.47380768	     -4.81708457	      2.81902908	      0.97844201	      0.92401938	      0.46646363	      2.54335405	     -0.79753986	    -14.96693761	     26.57070892	     26.57070892	     16.72634147	      2.80899563	     -6.03260447	     26.58555466	     -4.92254798	     -2.53371686	     24.24305870	     24.24305870	      6.60998988	    -14.27364706	      4.48021017	     -8.18928373	      4.95578885	      3.72552771	     30.93121532	    -15.90184374	      4.10573346	    101.54494794	     43.70535509	      0.00000000	      0.00000000	     -7.91552433	     -7.77245653	     -5.31112422	     32.17013414	     45.38111470	      0.00000000	      0.00000000
